<?xml version="1.0" encoding="UTF-8"?>
<svg width="512" height="512" viewBox="0 0 512 512" fill="none" xmlns="http://www.w3.org/2000/svg">
    <rect width="512" height="512" fill="#FFFFFF"/>
    <path d="M380 160H132C121 160 112 169 112 180V332C112 343 121 352 132 352H380C391 352 400 343 400 332V180C400 169 391 160 380 160ZM160 312C160 317 156 320 152 320C148 320 144 317 144 312V200C144 196 148 192 152 192C156 192 160 196 160 200V312ZM240 280C240 285 236 288 232 288C228 288 224 285 224 280V232C224 228 228 224 232 224C236 224 240 228 240 232V280ZM320 248C320 253 316 256 312 256C308 256 304 253 304 248V232C304 228 308 224 312 224C316 224 320 228 320 232V248Z" fill="#4F46E5"/>
    <path d="M152 180C148 180 144 184 144 188V324C144 328 148 332 152 332C156 332 160 328 160 324V188C160 184 156 180 152 180ZM232 212C228 212 224 216 224 220V292C224 296 228 300 232 300C236 300 240 296 240 292V220C240 216 236 212 232 212ZM312 212C308 212 304 216 304 220V260C304 264 308 268 312 268C316 268 320 264 320 260V220C320 216 316 212 312 212Z" fill="#312E81"/>
</svg> 