<?xml version="1.0" encoding="UTF-8"?>
<svg width="512" height="512" viewBox="0 0 512 512" fill="none" xmlns="http://www.w3.org/2000/svg">
    <rect width="512" height="512" fill="#4F46E5"/>
    <path d="M256 128C192 128 140 180 140 244C140 308 192 360 256 360C320 360 372 308 372 244C372 180 320 128 256 128ZM256 320C214 320 180 286 180 244C180 202 214 168 256 168C298 168 332 202 332 244C332 286 298 320 256 320Z" fill="white"/>
    <path d="M256 188C225 188 200 213 200 244C200 275 225 300 256 300C287 300 312 275 312 244C312 213 287 188 256 188ZM256 280C236 280 220 264 220 244C220 224 236 208 256 208C276 208 292 224 292 244C292 264 276 280 256 280Z" fill="#4F46E5"/>
</svg> 